<?xml version="1.0" standalone="no"?>
<!DOCTYPE svg PUBLIC "-//W3C//DTD SVG 20010904//EN"
 "http://www.w3.org/TR/2001/REC-SVG-20010904/DTD/svg10.dtd">
<svg version="1.0" xmlns="http://www.w3.org/2000/svg"
 width="1024.000000pt" height="1024.000000pt" viewBox="0 0 1024.000000 1024.000000"
 preserveAspectRatio="xMidYMid meet">

<g transform="translate(0.000000,1024.000000) scale(0.100000,-0.100000)"
fill="#000000" stroke="none">
<path d="M5139 7862 c-118 -76 -256 -164 -306 -196 l-93 -59 0 -48 0 -49 50 0
50 0 0 -229 c0 -126 3 -236 6 -245 5 -12 -1 -16 -23 -16 -37 0 -63 -27 -63
-66 0 -62 -30 -58 542 -65 493 -5 527 -7 600 -27 90 -25 133 -45 171 -81 143
-132 12 -323 -388 -566 -124 -75 -627 -330 -810 -411 l-120 -53 -5 -338 c-5
-325 -6 -340 -28 -387 -12 -27 -37 -68 -56 -90 -18 -23 -42 -62 -54 -88 -14
-32 -34 -56 -63 -75 -39 -26 -50 -28 -138 -28 -116 0 -159 17 -204 82 l-31 43
-211 0 -211 0 -31 -43 c-44 -64 -89 -82 -198 -82 -104 0 -156 20 -190 73 -11
17 -22 31 -25 32 -3 0 -62 -51 -130 -113 -120 -109 -240 -238 -240 -258 0 -5
311 -9 779 -9 l778 0 35 53 c130 192 459 525 878 887 526 453 726 647 867 837
182 246 207 459 71 608 -80 87 -184 130 -382 156 l-96 12 0 243 0 243 53 3 52
3 3 41 c2 29 -2 44 -15 56 -17 15 -551 356 -591 377 -16 9 -55 -13 -233 -127z
m318 -408 c55 -41 63 -72 63 -261 l0 -173 -160 0 -160 0 0 181 c0 203 7 230
73 263 45 23 147 17 184 -10z"/>
<path d="M3435 6376 c-60 -28 -127 -99 -143 -154 -9 -28 -12 -192 -12 -569 l0
-529 26 -52 c14 -29 41 -64 59 -77 26 -21 33 -34 38 -72 7 -63 24 -73 117 -73
98 0 120 14 120 76 l0 44 320 0 320 0 0 -40 c0 -65 23 -80 123 -80 96 0 117
13 117 72 0 28 7 40 39 66 21 17 48 51 60 75 21 42 21 54 21 593 l0 550 -26
52 c-14 28 -43 65 -64 82 -76 60 -77 60 -594 60 l-471 0 -50 -24z m1043 -258
c9 -9 12 -77 12 -244 0 -203 -2 -233 -17 -245 -13 -11 -107 -14 -506 -15
l-490 -2 -24 24 -24 24 3 219 c2 166 6 222 17 234 12 15 61 17 515 17 377 0
505 -3 514 -12z m-893 -826 c44 -2 65 -37 47 -77 -11 -24 -16 -25 -91 -25 -83
0 -111 12 -111 49 0 39 33 59 93 56 15 -1 43 -2 62 -3z m900 -12 c17 -14 19
-43 5 -71 -9 -16 -22 -19 -88 -19 -42 0 -83 4 -90 9 -8 5 -12 23 -10 47 2 31
8 40 28 46 36 10 137 3 155 -12z"/>
<path d="M3975 4033 c-98 -25 -127 -151 -51 -220 63 -58 175 -43 211 27 56
108 -39 223 -160 193z"/>
<path d="M1630 3552 c0 -476 3 -504 57 -605 36 -65 129 -149 207 -186 99 -48
184 -64 301 -58 245 13 428 143 481 341 11 39 14 151 14 499 l0 447 -120 0
-120 0 0 -405 c0 -253 -4 -423 -11 -455 -17 -78 -63 -139 -133 -175 -53 -27
-69 -30 -145 -29 -103 0 -159 23 -220 89 -69 75 -71 92 -71 562 l0 413 -120 0
-120 0 0 -438z"/>
<path d="M4286 3918 c2 -40 4 -88 4 -105 l0 -33 180 0 180 0 0 -525 0 -525
120 0 120 0 0 525 0 525 200 0 200 0 0 105 0 105 -504 0 -504 0 4 -72z"/>
<path d="M3294 3680 c-68 -14 -132 -50 -174 -98 l-40 -45 0 62 0 61 -105 0
-105 0 0 -465 0 -465 115 0 114 0 3 313 3 314 27 40 c37 56 86 78 173 78 88 0
131 -22 163 -85 21 -43 22 -53 22 -352 l0 -308 116 0 115 0 -3 343 c-3 328 -4
344 -26 398 -44 111 -138 186 -256 208 -67 12 -83 12 -142 1z"/>
<path d="M6228 3680 c-129 -22 -252 -118 -283 -222 -27 -91 -31 -88 99 -88
l114 0 6 30 c13 67 93 107 198 97 94 -8 138 -47 138 -122 0 -41 -28 -71 -73
-79 -18 -3 -90 -12 -162 -20 -155 -18 -218 -36 -273 -76 -65 -47 -94 -98 -100
-178 -13 -183 89 -298 280 -319 113 -12 245 32 306 102 l32 36 0 -56 0 -55
100 0 101 0 -3 358 c-3 340 -4 359 -24 403 -72 155 -241 225 -456 189z m282
-568 c0 -110 -52 -183 -152 -216 -141 -45 -249 8 -235 117 10 77 51 97 241
117 55 6 102 13 105 15 2 3 13 5 23 5 14 0 18 -8 18 -38z"/>
<path d="M7312 3680 c-65 -14 -129 -49 -173 -97 l-39 -43 0 60 0 60 -105 0
-105 0 0 -465 0 -465 110 0 110 0 0 288 c0 325 5 358 66 411 87 77 251 62 306
-28 22 -35 23 -44 26 -353 l3 -318 110 0 109 0 0 333 c0 370 -3 396 -63 484
-72 105 -221 161 -355 133z"/>
<path d="M8150 3679 c-195 -32 -315 -195 -266 -361 30 -105 116 -161 294 -193
173 -31 193 -37 222 -62 24 -20 30 -33 30 -65 0 -55 -38 -92 -114 -109 -109
-24 -215 18 -231 92 l-7 29 -114 0 c-113 0 -114 0 -114 -23 0 -38 58 -143 97
-178 92 -81 258 -123 395 -100 130 21 240 88 285 174 25 48 30 176 9 232 -38
99 -133 148 -340 175 -140 18 -188 41 -202 97 -18 71 57 128 158 120 77 -7
128 -33 153 -79 l20 -38 107 0 108 0 -7 33 c-10 51 -48 120 -90 160 -88 87
-233 122 -393 96z"/>
<path d="M5669 3652 c-48 -25 -89 -67 -125 -128 -9 -15 -11 -3 -10 61 l1 80
-107 3 -108 3 0 -471 0 -470 115 0 115 0 0 273 c0 306 6 342 65 401 36 36 90
54 175 58 l55 3 3 108 3 107 -65 0 c-50 0 -75 -6 -117 -28z"/>
<path d="M3900 3195 l0 -465 115 0 115 0 0 465 0 465 -115 0 -115 0 0 -465z"/>
</g>
</svg>
